<svg xmlns="http://www.w3.org/2000/svg" viewBox="0 0 320.00003 28.28201"><path fill="#00C1DB" d="M0 21.54802h6.734v6.734H0z"/><path fill="#007CCE" d="M0 10.77402h17.508v6.734H0z"/><path fill="#0037C1" d="M0 .00002h28.281v6.734H0z"/><path fill="#3EFF7E" d="M10.77401 21.54801h6.734v6.734h-6.734z"/><path fill="#1FE850" d="M21.54701 10.77401h6.734v17.508h-6.734z"/><path fill="#0CD43C" d="M32.321.00101h6.734v28.281h-6.734z"/><g fill="#1E222D"><path d="M61.74202 3.534v3.749h-7.99001v4.84599h5.612v3.74899h-5.60899v9h-3.922V3.534h11.909zM74.61402 24.87801V22.946c-.53392.70732-1.22562 1.2802-2.02 1.673-.88193.42043-1.85022.62799-2.827.606-1.78308.08908-3.51617-.60487-4.745-1.89999-1.23764-1.48148-1.86194-3.38013-1.745-5.30701V8.005h3.952v9.606c-.06073 1.10257.24904 2.19379.88 3.10001.6711.79803 1.68663 1.22235 2.726 1.13901 1.02496.02281 2.00728-.41011 2.68201-1.18201.76889-.95976 1.14998-2.17296 1.06799-3.39999v-9.259h3.894v16.86899h-3.865zM84.87599 8.00501v2.077c.56595-.73801 1.29047-1.33948 2.12-1.75999.90817-.45413 1.91278-.68161 2.92801-.66299 1.83633-.10373 3.62839.58859 4.918 1.89999 1.2551 1.47318 1.8909 3.3752 1.77399 5.30701v10.009h-3.95197v-9.60001c.06137-1.11366-.27615-2.21274-.952-3.10001-.72614-.79875-1.77948-1.21884-2.85599-1.13901-1.06296-.02226-2.08542.40773-2.81299 1.183-.8129.93893-1.22223 2.16084-1.13901 3.39999v9.259h-3.89005V8.00501h3.86201zM103.569 24.63401c-.99182-.39485-1.8981-.97752-2.66901-1.716-.80988-.78316-1.45575-1.7197-1.89999-2.755-.49747-1.17149-.7431-2.43446-.72101-3.707-.02408-1.2803.21628-2.5518.70599-3.735.43521-1.03409 1.07269-1.97076 1.875-2.755.77057-.74519 1.68246-1.32866 2.68201-1.716.98706-.38986 2.03873-.59035 3.10001-.591 1.05145-.0092 2.09317.202 3.05801.62.90106.38333 1.70078.97078 2.336 1.716v-6.461h3.923v21.345H112.065V22.687c-.62906.79938-1.43988 1.43704-2.36499 1.86-.97491.45508-2.03912.68671-3.11499.67799-1.03387-.00251-2.05767-.20312-3.01602-.59098zm5.66699-3.38901c.60205-.25955 1.14276-.64285 1.58701-1.125.44818-.49023.80484-1.05687 1.05301-1.67301.26251-.6506.39468-1.34645.38901-2.048.00372-.69197-.12845-1.37794-.38901-2.019-.24585-.61311-.60284-1.17555-1.05301-1.659-.44742-.47501-.98758-.85313-1.58701-1.11099-1.28726-.53856-2.73672-.53856-4.02399 0-.6087.25903-1.16202.63245-1.63 1.10001-.46735.46983-.83533 1.02893-1.082 1.644-.26276.65057-.39529 1.34639-.39001 2.048-.00433.70607.12808 1.4063.39001 2.062.76474 1.93291 2.63733 3.19838 4.716 3.187.69528.00742 1.38443-.13089 2.02301-.40601h-.00302zM123.01101 24.63401c-.99161-.3952-1.89752-.97821-2.668-1.717-.80981-.78319-1.45569-1.71971-1.89999-2.755-.49768-1.17142-.74335-2.43443-.72101-3.707-.02377-1.28038.21692-2.5519.707-3.735.43515-1.0341 1.07266-1.97079 1.875-2.755.77069-.74506 1.68256-1.32849 2.68201-1.716.98703-.39015 2.03867-.59097 3.10001-.592 1.0621-.01106 2.11429.20509 3.086.634.90002.39212 1.69888.9841 2.336 1.731v-2.019h3.89401V24.877h-3.89401v-2.192c-.62897.79974-1.43976 1.43776-2.36499 1.86099-.97525.45509-2.03983.68672-3.116.67799-1.03379-.00239-2.05756-.20264-3.01603-.58997zm5.668-3.38899c.60172-.25961 1.14209-.64291 1.586-1.125.44818-.49023.80484-1.05687 1.05301-1.67301.26251-.65062.39468-1.34645.38901-2.048.00369-.69197-.12845-1.37794-.38901-2.019-.24585-.61311-.60284-1.17555-1.05301-1.659-.44711-.47491-.98691-.85304-1.586-1.11099-1.28726-.53856-2.73672-.53856-4.02399 0-.60867.25908-1.16199.63249-1.63 1.10001-.46683.47005-.83444 1.02911-1.08099 1.644-.26303.6505-.39554 1.34637-.39001 2.048-.00455.70609.1279 1.40634.39001 2.062.49271 1.25499 1.47137 2.25783 2.71399 2.78099 1.28726.53856 2.73672.53856 4.02399 0h-.003zM141.781 8.00501v1.96201c.53836-.71198 1.23416-1.28972 2.03299-1.688.86572-.42445 1.81998-.63696 2.784-.62 1.16699-.0377 2.32404.22539 3.35999.76401.90002.49568 1.6366 1.24231 2.12 2.149.5773-.88538 1.36514-1.61378 2.293-2.12 2.75668-1.37212 6.06989-.93715 8.379 1.10001 1.21796 1.44112 1.83743 3.29414 1.73099 5.17799v10.153h-3.97894v-9.836c.05731-1.0556-.27069-2.09608-.923-2.92799-.70154-.75816-1.70972-1.15628-2.73999-1.082-1.00003-.02304-1.96347.37628-2.65399 1.10001-.77802.92233-1.16135 2.11404-1.06699 3.317v9.43201h-3.952v-9.951c.0596-1.02908-.25827-2.04457-.89401-2.856-.68271-.72885-1.6579-1.11064-2.65399-1.039-1.0271-.02864-2.01804.38031-2.72601 1.125-.78693.94086-1.17487 2.15204-1.08099 3.375v9.34599h-3.89401V8.00501h3.86395zM171.43899 24.54702c-2.11777-.8432-3.79318-2.5237-4.63-4.644-.43613-1.08641-.65656-2.24735-.64899-3.418-.00845-1.18779.22211-2.36516.67801-3.46201.43088-1.04625 1.0632-1.99762 1.86099-2.8.80026-.79642 1.74518-1.4328 2.784-1.875 1.08902-.46576 2.26257-.70137 3.44699-.692 1.18982-.01141 2.37048.20903 3.47602.649 1.03329.41019 1.9711 1.02869 2.755 1.817.77579.79066 1.38751 1.72697 1.79999 2.755.4407 1.10043.66119 2.27666.64899 3.46201v1.47099h-13.73002c.2352 1.13606.85724 2.15534 1.76001 2.884.98001.75775 2.1951 1.14709 3.43301 1.10001 2.01935.06091 3.87141-1.11658 4.67301-2.97099l3.20001 1.84599c-1.51935 2.91698-4.58786 4.69286-7.874 4.55701-1.24392.01528-2.4786-.21548-3.63302-.67901zm.44699-12.5c-.8486.62654-1.47839 1.50438-1.79999 2.509h9.576c-.22375-1.03606-.81882-1.95444-1.673-2.582-.90073-.60823-1.9708-.91591-3.05701-.879-1.09229-.02782-2.16327.30539-3.04697.94798l.00097.00402zM189.262 8.00501v2.077c.56598-.73799 1.29047-1.33945 2.12-1.75999.90787-.45401 1.91211-.68149 2.927-.66299 1.83633-.10359 3.6283.5887 4.918 1.89999 1.2551 1.47318 1.8909 3.3752 1.77399 5.30701v10.009h-3.952v-9.60001c.06165-1.11369-.27591-2.21286-.952-3.10001-.72604-.79887-1.77945-1.21899-2.85599-1.13901-1.06262-.02199-2.08469.40799-2.81201 1.183-.81271.93906-1.22202 2.16087-1.13901 3.39999v9.259h-3.89401V8.00501h3.86603zM204.84 8.00501v-2.567l3.92297-2.683v5.25h3.43201v3.49001h-3.43201v6.317c-.0094.59346.02905 1.18672.11499 1.774.06018.81049.70453 1.45483 1.51501 1.515.59595.08672 1.19788.12517 1.79999.11501v3.66199h-.54797c-1.10156.02281-2.20154-.09344-3.27399-.34599-.79315-.18452-1.51801-.58942-2.091-1.168-.55334-.61169-.9364-1.35788-1.11102-2.164-.24323-1.10292-.35461-2.2308-.33197-3.36v-6.34601h-2.88397v-3.49l2.88696.00099zM225.24103 24.87801V22.946c-.53369.70714-1.22498 1.28-2.01898 1.673-.88196.42029-1.85028.62785-2.82703.606-1.78314.08936-3.5163-.60466-4.745-1.89999-1.23767-1.48148-1.86194-3.38013-1.745-5.30701V8.005h3.95099v9.606c-.06049 1.10255.24927 2.19368.88 3.10001.67133.79776 1.68671 1.22202 2.72601 1.13901 1.02527.02296 2.00793-.40996 2.68298-1.18201.76874-.95985 1.14978-2.17297 1.06799-3.39999v-9.259h3.89301v16.86899h-3.86497zM233.29001 24.172c-1.23486-.7059-2.22974-1.76588-2.85602-3.043l3.60498-1.731c.36694.74773.93658 1.37732 1.64398 1.817.73254.43364 1.57196.65327 2.42297.634.76959.05745 1.53491-.15662 2.16302-.605.45038-.34329.71661-.8757.72101-1.442.00897-.28743-.11316-.56337-.33197-.75-.25909-.21281-.55127-.38171-.86499-.5-.40619-.15907-.82635-.27992-1.255-.36099-.48065-.09666-.98065-.20235-1.5-.317-.73334-.15399-1.44965-.33667-2.14899-.548-.67029-.19685-1.30707-.49352-1.88898-.88-.55518-.37202-1.0188-.86504-1.35602-1.442-.67792-1.29808-.69391-2.84216-.04303-4.15401.32867-.63873.7851-1.20308 1.341-1.658.62152-.50511 1.33063-.89154 2.09198-1.14.87946-.28839 1.80054-.42963 2.72601-.418 1.46545-.05229 2.91998.27022 4.22601.937 1.09894.60078 2.01941 1.48157 2.66803 2.55299l-3.31702 1.673c-.34369-.59337-.84253-1.08188-1.44299-1.41299-.65399-.35588-1.38959-.53477-2.13397-.519-.72528-.05705-1.44812.13638-2.04797.548-.40656.29668-.65167.76582-.66302 1.269.01178.57814.41675 1.07352.98102 1.2.9436.31879 1.90741.57436 2.88501.765.70648.13815 1.4046.31612 2.091.533.677.20998 1.3222.51108 1.91803.895.57056.36758 1.04944.86084 1.40002 1.442.37793.67241.56274 1.43619.534 2.207-.0083.64075-.14429 1.27342-.40002 1.86099-.29138.67569-.71857 1.28427-1.255 1.78799-.62225.58255-1.35223 1.03807-2.14899 1.341-.99615.36855-2.05316.54466-3.11499.519-1.61571.05772-3.21837-.30803-4.6491-1.06098z"/></g><g fill="#00C1DB"><path d="M255.47503 7.73902v7.968h-1.05798v-7.968h1.05798zM258.00598 7.73902l4.28998 6.265v-6.265h1.04797v7.968h-1.125l-4.36603-6.353v6.353h-1.04797v-7.968h1.20105zM265.08801 7.73902l2.26801 6.433 2.25897-6.429h1.09998l-2.83801 7.968h-1.07001l-2.82703-7.968 1.10809-.004zM272.46399 7.73902v7.968h-1.05902v-7.968h1.05902zM274.43298 15.42901c-.46661-.25552-.87384-.60689-1.19501-1.03101l.92798-.72099c.21344.34445.50281.63553.84601.851.33484.1992.71844.30135 1.10797.295.41034.01942.81256-.11906 1.12402-.38699.27899-.24702.43481-.60449.42603-.97701.00623-.19652-.04712-.39034-.15302-.556-.10736-.15814-.2467-.29202-.409-.39301-.18567-.11603-.38354-.21127-.59003-.284-.22198-.08-.453-.15634-.69299-.229-.26666-.08733-.53339-.18533-.79999-.29401-.25684-.10474-.49884-.24257-.71997-.41-.21613-.16513-.39331-.37578-.51898-.617-.13989-.28105-.20856-.59218-.20001-.90601-.00183-.29097.06354-.57843.19098-.84.12592-.26094.30426-.49312.52399-.68201.23547-.20042.50696-.35417.79999-.453.32159-.11105.65979-.16618 1-.16299.51147-.01764 1.01941.09088 1.479.31599.39734.21152.75098.49657 1.04199.84l-.862.644c-.35822-.56425-.99139-.89323-1.659-.862-.37457-.01837-.7431.09996-1.03699.33299-.25458.2058-.39966.51773-.39301.845-.0047.18663.04877.3701.15302.52499.10626.14999.24243.27634.40002.371.1828.10899.37653.19849.578.267l.677.23399c.27667.09534.55133.19901.82397.311.26343.1071.50977.25232.73102.431.21564.1758.39386.39308.52399.63901.14264.28973.21136.61026.20001.933.00024.3044-.06311.6055-.18597.884-.12323.28343-.30133.53969-.52399.754-.23804.2265-.51788.40448-.82397.524-.35022.13737-.72382.20531-1.09998.2-.58781.01492-1.16978-.11996-1.69108-.39194zM279.30102 8.73202v-.993h5.67603v.993h-2.31403v6.97501h-1.047V8.73202h-2.315zM288.41101 7.73902l2.948 7.968h-1.09998l-.677-1.82201h-3.44897l-.66602 1.82201h-1.11206l2.95801-7.968h1.09802zm.79998 5.131l-1.35303-3.679-1.35699 3.681 2.71002-.002z"/><g><path d="M256.65303 24.86801c-2.06689-.91054-3.02332-3.30908-2.15002-5.392.2041-.48367.50067-.92288.87299-1.293.77313-.76045 1.81561-1.18428 2.90002-1.179.36707-.00166.7326.04782 1.086.147.33929.0957.66547.23308.97101.409.30231.17506.58124.38776.83002.633.24823.24359.46307.51898.63898.819l-.92799.56799c-.24493-.46285-.60608-.85399-1.04797-1.135-.46417-.2899-1.00287-.43795-1.54999-.42599-.41223-.0033-.82074.0784-1.20001.24001-.3609.15359-.68738.37802-.96002.66-.8476.90385-1.09448 2.21704-.633 3.367.1463.36182.36127.69188.633.972.56433.58014 1.3407.90514 2.15002.89999.58191.01692 1.15503-.14503 1.64203-.464.45239-.30576.81598-.72559 1.05402-1.217l.95001.5c-.17334.32481-.38593.62708-.633.89999-.24567.26973-.52655.50517-.83502.7-.31329.19846-.65344.351-1.01001.453-.37622.10715-.76581.16034-1.15698.158-.55762.00621-1.11048-.10274-1.62409-.31999zM264.73903 24.86801c-.48364-.20694-.92297-.50504-1.294-.87801-.36981-.37486-.66595-.81584-.87299-1.3-.43005-1.01915-.43005-2.16885 0-3.188.20691-.48422.50305-.92523.87299-1.3.37091-.37314.81024-.67125 1.29401-.87801 1.02112-.42897 2.17188-.42897 3.19299 0 .48608.20572.92761.50391 1.29999.87801.36993.37477.66608.81578.87299 1.3.43005 1.01915.43005 2.16885 0 3.188-.20691.48422-.50305.92523-.87299 1.3-.3725.37398-.81396.67216-1.29999.87801-1.021.42964-2.172.42964-3.193 0zm2.78803-.95c.35913-.15739.68518-.38133.961-.66.86322-.88887 1.11627-2.20547.64398-3.351-.15125-.36328-.36975-.69476-.64398-.97701-.27399-.28108-.60052-.50566-.961-.661-1.14087-.49524-2.46924-.23196-3.33502.661-.2713.28355-.48798.61478-.63898.97701-.31274.76251-.31274 1.61749 0 2.38.15027.36116.367.69087.63898.972.27313.27911.59735.50317.95502.66.75909.32787 1.61993.32787 2.37903 0l.00097-.001zM272.60201 17.11601l4.28998 6.265v-6.265h1.04797v7.968h-1.12402l-4.36603-6.353v6.353h-1.04797v-7.968h1.20007zM279.86702 24.80201c-.46832-.2551-.87726-.60648-1.20001-1.03101l.92798-.72099c.21344.3447.50281.63611.84601.85201.3349.19885.71851.30066 1.10797.29401.41034.01942.81256-.11906 1.12402-.38699.27917-.24686.43512-.60443.42603-.97701.00629-.19653-.04706-.39037-.15302-.556-.1073-.15849-.24658-.29272-.409-.394-.18579-.11583-.38361-.21106-.59003-.284-.22198-.08-.453-.15634-.69299-.229-.26666-.08733-.53333-.18565-.79999-.295-.25677-.10481-.49884-.24263-.71997-.41-.21558-.16504-.3924-.37531-.51801-.616-.13983-.28107-.20856-.59218-.20001-.90601-.00183-.29097.06354-.57843.19098-.84.12561-.26114.30365-.49362.52301-.683.23553-.20035.50702-.35408.79999-.453.32153-.11125.65979-.16638 1-.16299.51147-.01768 1.01941.09084 1.479.31599.39722.21173.75079.49673 1.04199.84l-.862.644c-.35822-.56425-.99139-.89323-1.659-.862-.37457-.01837-.7431.09996-1.03699.33299-.2547.2061-.39978.51842-.39301.84599-.005.18637.04852.36961.15302.524.10614.15036.24237.27704.40002.37199.18286.10886.37659.19835.578.267l.677.23399c.27667.09534.55133.19934.82397.312.26355.10696.50983.2522.73102.431.21564.17581.3938.3931.52399.63901.14264.28973.21136.61026.20001.933.00018.30472-.06317.60612-.18597.88499-.12311.2832-.30121.53915-.52399.75301-.23798.22656-.51788.40454-.82397.524-.35022.13738-.72382.20531-1.09998.2-.58609.01397-1.16623-.12089-1.68607-.39198zM287.196 24.86801c-2.0816-.88423-3.05225-3.2885-2.16803-5.37009.6452-1.51878 2.13892-2.50195 3.789-2.49391.36707-.00169.7326.04778 1.086.147.3396.09572.66608.23309.97198.409.30188.17523.58044.38791.82898.633.24786.24368.46234.51907.638.819l-.92797.56799c-.245-.46281-.60614-.85396-1.04797-1.13499-.46417-.2899-1.00287-.43796-1.54999-.42599-.41223-.0033-.82074.0784-1.20001.24001-.36115.1537-.68793.3781-.961.66-.84705.90417-1.09351 2.21721-.63202 3.367.14624.36163.36078.69165.63202.972.56488.5799 1.34149.90483 2.151.89999.58191.01692 1.15503-.14503 1.64203-.464.45258-.30554.81622-.72543 1.05402-1.217l.95001.5c-.17303.325-.38562.6273-.633.89999-.24561.26981-.52649.50525-.83502.7-.31342.19826-.6535.3508-1.01001.453-.37628.10706-.76581.16025-1.15698.158-.55658.00584-1.1084-.1031-1.62104-.32zM294.30703 17.11601v7.968h-1.05798v-7.968h1.05798zM300.44204 17.11601v1h-3.75702v2.466h3.755v1h-3.755v2.478h3.755v1.015h-4.79999v-7.959h4.80201zM302.72902 17.11601l4.28998 6.265v-6.265h1.04797v7.968h-1.125l-4.36395-6.356v6.353h-1.04999v-7.965h1.20099zM308.80196 18.106v-.98999h5.67603v.993h-2.31403v6.97501h-1.04797V18.106h-2.31403zM320.00001 17.11601v1h-3.755v2.466h3.755v1h-3.755v2.478h3.755v1.015h-4.79998v-7.959h4.79998z"/></g></g></svg>